# xmcd
#
# Track frame offsets: 
#        150
#        17342
#        29590
#        50782
#        75833
#        93505
#        116485
#        141611
#        163961
#        191779
#
# Disc length: 2919 seconds
#
# Revision: 3
# Processed by: cddbd v1.5.1PL2 Copyright (c) Steve Scherf et al.
# Submitted via: ExactAudioCopy v0.95b4
#
DISCID=870b650a
DTITLE=Various Artist - Here are the Blues Justin Time
DYEAR=2000
DGENRE=Blues
TTITLE0=Muddy WAters - Gypsy Woman
TTITLE1=Sonny Terry and Brownie McGhee - Hooray Hooray
TTITLE2=Lightnin' Hopkins - Trouble In mind
TTITLE3=John Lee Hooker - Boom Boom
TTITLE4=James Cotton - It Ain't Right
TTITLE5=Big Mama Thornton - Spoonful
TTITLE6=Taj Mahal - Corinna Corinna
TTITLE7=Dave Van Ronk - Gambler's Blues
TTITLE8=Louisiana Red - Sharecropper's Son
TTITLE9=Clifton Chenier - Rock Me Baby
EXTD=
EXTT0=
EXTT1=
EXTT2=
EXTT3=
EXTT4=
EXTT5=
EXTT6=
EXTT7=
EXTT8=
EXTT9=
PLAYORDER=
